<svg width="21" height="20" viewBox="0 0 21 20" fill="none" xmlns="http://www.w3.org/2000/svg">
<path fill-rule="evenodd" clip-rule="evenodd" d="M10.4999 3.33325C10.9602 3.33325 11.3333 3.70635 11.3333 4.16659V9.16658H16.3333C16.7935 9.16658 17.1666 9.53968 17.1666 9.99992C17.1666 10.4602 16.7935 10.8333 16.3333 10.8333H11.3333V15.8333C11.3333 16.2935 10.9602 16.6666 10.4999 16.6666C10.0397 16.6666 9.66658 16.2935 9.66658 15.8333V10.8333H4.66659C4.20635 10.8333 3.83325 10.4602 3.83325 9.99992C3.83325 9.53968 4.20635 9.16658 4.66659 9.16658H9.66658V4.16659C9.66658 3.70635 10.0397 3.33325 10.4999 3.33325Z" fill="#0B6F62"/>
</svg>
